<?xml version="1.0" encoding="utf-8"?>
<!-- Generator: Adobe Illustrator 24.0.2, SVG Export Plug-In . SVG Version: 6.00 Build 0)  -->
<svg version="1.1" id="Capa_1" xmlns="http://www.w3.org/2000/svg" xmlns:xlink="http://www.w3.org/1999/xlink" x="0px" y="0px"  width="50px" height="50px" fill='lightslategrey'
	 viewBox="0 0 638.1 638.1" style="enable-background:new 0 0 638.1 638.1;" xml:space="preserve">
<g>
	<g id="_x35__40_">
		<g>
			<path d="M334.7,319c-0.6-7.5,1.7-15.2,7.5-20.9L579.3,61.3c10.5-10.4,27.4-10.4,37.9,0c10.5,10.4,10.5,27.4,0,37.8L397,319
				l220.2,219.8c10.5,10.4,10.5,27.4,0,37.8c-10.5,10.4-27.4,10.4-37.9,0L342.1,339.9C336.4,334.2,334.1,326.6,334.7,319z
				 M20.5,298.1L311.3,7.8c10.5-10.4,27.4-10.4,37.9,0c10.5,10.4,10.5,27.4,0,37.8L75.4,319l273.8,273.3c10.5,10.4,10.5,27.4,0,37.8
				c-10.5,10.4-27.4,10.4-37.9,0L20.6,340c-5.8-5.7-8-13.4-7.4-20.9C12.5,311.5,14.8,303.8,20.5,298.1z"/>
		</g>
	</g>
</g>
</svg>
